<svg id="Capa_1" enable-background="new 0 0 512 512" height="512" viewBox="0 0 512 512" width="512" xmlns="http://www.w3.org/2000/svg"><g><path d="m512 256c0 141.385-114.615 256-256 256s-256-114.615-256-256c0-130.091 97.036-237.518 222.676-253.851 10.907-1.418 22.03 16.851 33.324 16.851 69.328 0 132.219 8.558 178.317 53.317 47.912 46.522 77.683 111.626 77.683 183.683z" fill="#6354b2"/><path d="m437.424 278.448v150.212c0 4.326-1.373 8.331-3.708 11.603-1.908 1.84-3.844 3.651-5.808 5.432-3.048 1.88-6.639 2.965-10.484 2.965h-23.569l6.091 19.066c-7.499 5.108-15.282 9.828-23.323 14.131l-25.359-33.198h-263.845c-7.011-6.14-13.685-12.657-19.989-19.519-.004-.16-.006-.32-.006-.481v-115.322l-3.008-2.151c-1.374-.983-3.024-1.505-4.714-1.492l-37.937.288c-3.466.026-6.554-2.182-7.65-5.47l-11.997-35.991c-.397-1.191-1.067-2.266-1.949-3.143-.112-3.113-.169-6.239-.169-9.378 0-28.64 4.703-56.181 13.379-81.894 16.473 32.821 39.268 61.92 66.788 85.7 2.25-.877 4.698-1.358 7.258-1.358h330c11.045 0 19.999 8.954 19.999 20z" fill="#54469d"/><path d="m197.774 273.266-22.229.169c-1.689.013-3.331.56-4.691 1.563l-30.523 22.532c-2.788 2.058-6.585 2.087-9.404.071l-30.861-22.066c-1.374-.983-3.024-1.505-4.714-1.492l-37.937.288c-3.466.026-6.554-2.182-7.65-5.47l-11.997-35.991c-.534-1.603-1.562-2.995-2.936-3.978l-30.862-22.066c-2.819-2.016-4.02-5.618-2.974-8.922l11.449-36.17c.51-1.611.497-3.341-.038-4.944l-11.996-35.991c-1.096-3.288.05-6.908 2.838-8.966l27.403-20.229c24.223 83.521 86.653 150.798 167.122 181.662z" fill="#ff2aaa"/><path d="m452.362 5v225.915c0 2.761-2.239 5-5 5h-225.915c-2.761 0-5-2.239-5-5v-225.915c0-2.761 2.239-5 5-5h225.915c2.761 0 5 2.239 5 5z" fill="#c9f0ff"/><path d="m257.863 235.915h-36.416c-2.761 0-5-2.239-5-5v-225.915c0-2.761 2.239-5 5-5h36.416c-2.761 0-5 2.239-5 5v225.915c0 2.761 2.238 5 5 5z" fill="#9ae7fd"/><path d="m416.872 35.489v164.936h-164.936v-164.936z" fill="#64dcfc"/><path d="m393.894 117.958c0 32.855-26.634 59.489-59.489 59.489-32.855 0-59.489-26.634-59.489-59.489s26.634-59.49 59.489-59.49c32.854 0 59.489 26.634 59.489 59.49z" fill="#ffc143"/><path d="m387.529 144.757c-9.802 19.393-29.911 32.69-53.125 32.69-32.855 0-59.489-26.634-59.489-59.489 0-23.214 13.297-43.323 32.69-53.125-4.071 8.054-6.364 17.159-6.364 26.8 0 32.855 26.634 59.489 59.489 59.489 9.641-.001 18.746-2.294 26.799-6.365z" fill="#ffb509"/><path d="m360.702 132.283c0 10.211-8.278 18.49-18.489 18.49h-15.106c-10.211 0-18.489-8.278-18.489-18.49 0-2.761 2.239-5 5-5h42.085c2.761 0 4.999 2.239 4.999 5z" fill="#ff9500"/><path d="m268.735 195.872c1.096 3.288-.05 6.908-2.838 8.966l-30.523 22.532c-1.359 1.003-2.366 2.411-2.876 4.022l-11.449 36.169c-1.046 3.304-4.101 5.559-7.566 5.585l-15.444.117c-82.938-27.072-147.248-95.352-168.745-180.656l4.478-3.305c1.359-1.003 2.366-2.411 2.876-4.022l11.449-36.17c1.046-3.304 4.101-5.559 7.566-5.585l37.937-.288c1.689-.013 3.331-.56 4.691-1.563l30.523-22.532c2.788-2.058 6.585-2.087 9.404-.071l30.861 22.066c1.374.983 3.024 1.505 4.714 1.492l37.937-.288c3.466-.026 6.554 2.182 7.65 5.47l11.997 35.991c.534 1.603 1.562 2.995 2.936 3.978l30.861 22.066c2.819 2.016 4.02 5.618 2.974 8.922l-11.449 36.17c-.51 1.611-.497 3.342.038 4.944z" fill="#ff4fb8"/><path d="m172 112.462h-15.011l7.326-35.247c.843-4.055-1.761-8.026-5.816-8.869-4.056-.844-8.026 1.761-8.869 5.817l-7.961 38.3h-16.57l7.327-35.247c.844-4.055-1.761-8.026-5.816-8.869-4.057-.842-8.026 1.761-8.869 5.817l-7.961 38.3h-18.092c-4.143 0-7.5 3.358-7.5 7.5s3.357 7.5 7.5 7.5h14.973l-6.62 31.849h-18.041c-4.143 0-7.5 3.358-7.5 7.5s3.357 7.5 7.5 7.5h14.923l-7.483 35.999c-.844 4.055 1.761 8.026 5.816 8.869.515.107 1.028.158 1.534.158 3.479 0 6.6-2.435 7.335-5.975l8.118-39.052h16.57l-7.483 35.999c-.843 4.055 1.761 8.026 5.816 8.869.515.107 1.028.158 1.534.158 3.479 0 6.6-2.435 7.335-5.975l8.117-39.052h18.18c4.143 0 7.5-3.358 7.5-7.5s-3.357-7.5-7.5-7.5h-15.062l6.62-31.849h18.13c4.143 0 7.5-3.358 7.5-7.5s-3.357-7.5-7.5-7.5zm-40.069 46.849h-16.57l6.62-31.849h16.57z" fill="#ffafe2"/><path d="m459.915 244.958v150.212c0 11.046-8.954 20-20 20h-23.569l15.3 47.896c1.797 5.625-2.4 11.372-8.306 11.372-2.717 0-5.279-1.267-6.929-3.426l-42.657-55.843h-263.839c-11.046 0-20-8.954-20-20v-150.211c0-11.046 8.954-20 20-20h330c11.046 0 20 8.954 20 20z" fill="#00d683"/><path d="m154.461 415.17h-44.546c-11.046 0-20-8.954-20-20v-150.212c0-11.046 8.954-20 20-20h44.546c-11.046 0-20 8.954-20 20v150.212c0 11.046 8.954 20 20 20z" fill="#00b972"/><path d="m209.372 203.965v-13.851h-13.851c-4.142 0-7.5-3.358-7.5-7.5s3.358-7.5 7.5-7.5h13.851v-13.851c0-4.142 3.358-7.5 7.5-7.5 4.142 0 7.5 3.358 7.5 7.5v13.851h13.851c4.142 0 7.5 3.358 7.5 7.5s-3.358 7.5-7.5 7.5h-13.851v13.851c0 4.142-3.358 7.5-7.5 7.5-4.142 0-7.5-3.358-7.5-7.5zm7.871 280.016v-13.851h-13.851c-4.142 0-7.5-3.358-7.5-7.5s3.358-7.5 7.5-7.5h13.851v-13.851c0-4.142 3.358-7.5 7.5-7.5 4.142 0 7.5 3.358 7.5 7.5v13.851h13.851c4.142 0 7.5 3.358 7.5 7.5s-3.358 7.5-7.5 7.5h-13.851v13.851c0 4.142-3.358 7.5-7.5 7.5-4.142 0-7.5-3.358-7.5-7.5zm-157.211-190.703c-4.142 0-7.5 3.358-7.5 7.5v35.31c0 4.142 3.358 7.5 7.5 7.5s7.5-3.358 7.5-7.5v-35.31c0-4.143-3.358-7.5-7.5-7.5zm1.572 60.436h-3.145c-3.274 0-5.927 2.654-5.927 5.927v2.805c0 3.274 2.654 5.927 5.927 5.927h3.145c3.274 0 5.927-2.654 5.927-5.927v-2.805c.001-3.274-2.653-5.927-5.927-5.927zm114.867 14.379c-.015 0-.028 0-.043 0-9.768.054-23.953.11-32.375.093v-106.49c0-4.142-3.357-7.5-7.5-7.5s-7.5 3.358-7.5 7.5v113.897c0 3.653 2.632 6.775 6.232 7.392.54.093 1.213.208 13.439.208 6.014 0 14.824-.028 27.787-.1 4.142-.023 7.481-3.4 7.458-7.542-.022-4.128-3.375-7.458-7.498-7.458zm241.277 0c-.015 0-.028 0-.043 0-9.768.054-23.955.11-32.375.093v-106.49c0-4.142-3.357-7.5-7.5-7.5s-7.5 3.358-7.5 7.5v113.897c0 3.653 2.632 6.775 6.232 7.392.54.093 1.213.208 13.439.208 6.014 0 14.824-.028 27.787-.1 4.142-.023 7.481-3.4 7.458-7.542-.023-4.128-3.375-7.458-7.498-7.458zm-84.458-49.401c0 35.563-28.934 64.497-64.497 64.497s-64.496-28.933-64.496-64.497 28.933-64.497 64.496-64.497 64.497 28.934 64.497 64.497zm-15 0c0-27.292-22.204-49.497-49.497-49.497-27.292 0-49.496 22.204-49.496 49.497s22.204 49.497 49.496 49.497 49.497-22.204 49.497-49.497zm52.53-218.762c0 6.617-5.364 11.981-11.982 11.981-5.811 0-10.784-4.17-11.798-9.892l-2.99-16.878 16.878 2.99c5.723 1.015 9.892 5.988 9.892 11.799zm-72.832 0c0 6.617 5.364 11.981 11.982 11.981 5.811 0 10.784-4.17 11.798-9.892l2.99-16.878-16.878 2.99c-5.722 1.015-9.892 5.988-9.892 11.799z" fill="#fff"/></g></svg>